M48
; DRILL file {KiCad 7.0.6-7.0.6~ubuntu22.10.1} date Sat 12 Aug 2023 10:12:43 PM EDT
; FORMAT={-:-/ absolute / inch / decimal}
; #@! TF.CreationDate,2023-08-12T22:12:43-04:00
; #@! TF.GenerationSoftware,Kicad,Pcbnew,7.0.6-7.0.6~ubuntu22.10.1
; #@! TF.FileFunction,NonPlated,1,2,NPTH
FMAT,2
INCH
; #@! TA.AperFunction,NonPlated,NPTH,ComponentDrill
T1C0.0689
; #@! TA.AperFunction,NonPlated,NPTH,ComponentDrill
T2C0.1570
%
G90
G05
T1
X2.6125Y-2.5312
X2.6125Y-3.2812
X2.6125Y-4.0312
X3.0125Y-2.5312
X3.0125Y-3.2812
X3.0125Y-4.0312
X3.3625Y-2.5312
X3.3625Y-3.2812
X3.3625Y-4.0312
X3.7625Y-2.5312
X3.7625Y-3.2812
X3.7625Y-4.0312
X4.1125Y-2.5312
X4.1125Y-3.2812
X4.1125Y-4.0312
X4.5125Y-2.5312
X4.5125Y-3.2812
X4.5125Y-4.0312
X4.8625Y-2.5312
X4.8625Y-3.2812
X4.8625Y-4.0312
X5.2625Y-2.5312
X5.2625Y-3.2812
X5.2625Y-4.0312
T2
X2.8125Y-2.5312
X2.8125Y-3.2812
X2.8125Y-4.0312
X3.5625Y-2.5312
X3.5625Y-3.2812
X3.5625Y-4.0312
X4.3125Y-2.5312
X4.3125Y-3.2812
X4.3125Y-4.0312
X5.0625Y-2.5312
X5.0625Y-3.2812
X5.0625Y-4.0312
T0
M30
