%TF.GenerationSoftware,KiCad,Pcbnew,7.0.6-7.0.6~ubuntu22.10.1*%
%TF.CreationDate,2023-08-12T22:12:44-04:00*%
%TF.ProjectId,ZachEKeyboard,5a616368-454b-4657-9962-6f6172642e6b,rev?*%
%TF.SameCoordinates,Original*%
%TF.FileFunction,Copper,L1,Top*%
%TF.FilePolarity,Positive*%
%FSLAX46Y46*%
G04 Gerber Fmt 4.6, Leading zero omitted, Abs format (unit mm)*
G04 Created by KiCad (PCBNEW 7.0.6-7.0.6~ubuntu22.10.1) date 2023-08-12 22:12:44*
%MOMM*%
%LPD*%
G01*
G04 APERTURE LIST*
G04 Aperture macros list*
%AMRoundRect*
0 Rectangle with rounded corners*
0 $1 Rounding radius*
0 $2 $3 $4 $5 $6 $7 $8 $9 X,Y pos of 4 corners*
0 Add a 4 corners polygon primitive as box body*
4,1,4,$2,$3,$4,$5,$6,$7,$8,$9,$2,$3,0*
0 Add four circle primitives for the rounded corners*
1,1,$1+$1,$2,$3*
1,1,$1+$1,$4,$5*
1,1,$1+$1,$6,$7*
1,1,$1+$1,$8,$9*
0 Add four rect primitives between the rounded corners*
20,1,$1+$1,$2,$3,$4,$5,0*
20,1,$1+$1,$4,$5,$6,$7,0*
20,1,$1+$1,$6,$7,$8,$9,0*
20,1,$1+$1,$8,$9,$2,$3,0*%
G04 Aperture macros list end*
%TA.AperFunction,ComponentPad*%
%ADD10C,1.800000*%
%TD*%
%TA.AperFunction,ComponentPad*%
%ADD11RoundRect,0.450000X-0.450000X-0.450000X0.450000X-0.450000X0.450000X0.450000X-0.450000X0.450000X0*%
%TD*%
%TA.AperFunction,ComponentPad*%
%ADD12R,1.700000X1.700000*%
%TD*%
%TA.AperFunction,ComponentPad*%
%ADD13O,1.700000X1.700000*%
%TD*%
%TA.AperFunction,ComponentPad*%
%ADD14C,3.300000*%
%TD*%
%TA.AperFunction,ViaPad*%
%ADD15C,0.800000*%
%TD*%
%TA.AperFunction,Conductor*%
%ADD16C,0.250000*%
%TD*%
G04 APERTURE END LIST*
D10*
%TO.P,U1,1,D3-TX*%
%TO.N,unconnected-(U1-D3-TX-Pad1)*%
X141763750Y-58578750D03*
%TO.P,U1,2,D2-RX*%
%TO.N,unconnected-(U1-D2-RX-Pad2)*%
X141763750Y-61118750D03*
D11*
%TO.P,U1,3,GND*%
%TO.N,unconnected-(U1-GND-Pad3)*%
X141763750Y-63658750D03*
%TO.P,U1,4,GND*%
%TO.N,/ROW0*%
X141763750Y-66198750D03*
D10*
%TO.P,U1,5,D1*%
%TO.N,/ROW1*%
X141763750Y-68738750D03*
%TO.P,U1,6,D0*%
%TO.N,/ROW2*%
X141763750Y-71278750D03*
%TO.P,U1,7,D4*%
%TO.N,/COL0*%
X141763750Y-73818750D03*
%TO.P,U1,8,C6*%
%TO.N,/COL1*%
X141763750Y-76358750D03*
%TO.P,U1,9,D7*%
%TO.N,/COL2*%
X141763750Y-78898750D03*
%TO.P,U1,10,E6*%
%TO.N,/COL3*%
X141763750Y-81438750D03*
%TO.P,U1,11,B4*%
%TO.N,unconnected-(U1-B4-Pad11)*%
X141763750Y-83978750D03*
%TO.P,U1,12,B5*%
%TO.N,unconnected-(U1-B5-Pad12)*%
X141763750Y-86518750D03*
%TO.P,U1,13,B0*%
%TO.N,unconnected-(U1-B0-Pad13)*%
X157003750Y-58578750D03*
D11*
%TO.P,U1,14,GND*%
%TO.N,GND*%
X157003750Y-61118750D03*
D10*
%TO.P,U1,15,RST*%
%TO.N,unconnected-(U1-RST-Pad15)*%
X157003750Y-63658750D03*
%TO.P,U1,16,VCC*%
%TO.N,+3.3V*%
X157003750Y-66198750D03*
%TO.P,U1,17,F4*%
%TO.N,/SCL*%
X157003750Y-68738750D03*
%TO.P,U1,18,F5*%
%TO.N,/SDA*%
X157003750Y-71278750D03*
%TO.P,U1,19,F6*%
%TO.N,/INT*%
X157003750Y-73818750D03*
%TO.P,U1,20,F7*%
%TO.N,unconnected-(U1-F7-Pad20)*%
X157003750Y-76358750D03*
%TO.P,U1,21,B1*%
%TO.N,unconnected-(U1-B1-Pad21)*%
X157003750Y-78898750D03*
%TO.P,U1,22,B3*%
%TO.N,unconnected-(U1-B3-Pad22)*%
X157003750Y-81438750D03*
%TO.P,U1,23,B2*%
%TO.N,unconnected-(U1-B2-Pad23)*%
X157003750Y-83978750D03*
%TO.P,U1,24,B6*%
%TO.N,unconnected-(U1-B6-Pad24)*%
X157003750Y-86518750D03*
%TD*%
D12*
%TO.P,J1,1,Pin_1*%
%TO.N,+3.3V*%
X144333750Y-91415000D03*
D13*
%TO.P,J1,2,Pin_2*%
%TO.N,/SDA*%
X146873750Y-91415000D03*
%TO.P,J1,3,Pin_3*%
%TO.N,/SCL*%
X149413750Y-91415000D03*
%TO.P,J1,4,Pin_4*%
%TO.N,/INT*%
X151953750Y-91415000D03*
%TO.P,J1,5,Pin_5*%
%TO.N,GND*%
X154493750Y-91415000D03*
%TD*%
D14*
%TO.P,MX12,2,2*%
%TO.N,Net-(D12-A)*%
X131127500Y-97313750D03*
%TO.P,MX12,1,1*%
%TO.N,/COL3*%
X124777500Y-99853750D03*
%TD*%
%TO.P,MX11,2,2*%
%TO.N,Net-(D11-A)*%
X112077500Y-97313750D03*
%TO.P,MX11,1,1*%
%TO.N,/COL2*%
X105727500Y-99853750D03*
%TD*%
%TO.P,MX10,2,2*%
%TO.N,Net-(D10-A)*%
X93027500Y-97313750D03*
%TO.P,MX10,1,1*%
%TO.N,/COL1*%
X86677500Y-99853750D03*
%TD*%
%TO.P,MX9,2,2*%
%TO.N,Net-(D9-A)*%
X73977500Y-97313750D03*
%TO.P,MX9,1,1*%
%TO.N,/COL0*%
X67627500Y-99853750D03*
%TD*%
%TO.P,MX8,2,2*%
%TO.N,Net-(D8-A)*%
X131127500Y-78263750D03*
%TO.P,MX8,1,1*%
%TO.N,/COL3*%
X124777500Y-80803750D03*
%TD*%
%TO.P,MX7,2,2*%
%TO.N,Net-(D7-A)*%
X112077500Y-78263750D03*
%TO.P,MX7,1,1*%
%TO.N,/COL2*%
X105727500Y-80803750D03*
%TD*%
%TO.P,MX6,2,2*%
%TO.N,Net-(D6-A)*%
X93027500Y-78263750D03*
%TO.P,MX6,1,1*%
%TO.N,/COL1*%
X86677500Y-80803750D03*
%TD*%
%TO.P,MX5,2,2*%
%TO.N,Net-(D5-A)*%
X73977500Y-78263750D03*
%TO.P,MX5,1,1*%
%TO.N,/COL0*%
X67627500Y-80803750D03*
%TD*%
%TO.P,MX4,2,2*%
%TO.N,Net-(D4-A)*%
X131127500Y-59213750D03*
%TO.P,MX4,1,1*%
%TO.N,/COL3*%
X124777500Y-61753750D03*
%TD*%
%TO.P,MX3,2,2*%
%TO.N,Net-(D3-A)*%
X112077500Y-59213750D03*
%TO.P,MX3,1,1*%
%TO.N,/COL2*%
X105727500Y-61753750D03*
%TD*%
%TO.P,MX2,2,2*%
%TO.N,Net-(D2-A)*%
X93027500Y-59213750D03*
%TO.P,MX2,1,1*%
%TO.N,/COL1*%
X86677500Y-61753750D03*
%TD*%
%TO.P,MX1,2,2*%
%TO.N,Net-(D1-A)*%
X73977500Y-59213750D03*
%TO.P,MX1,1,1*%
%TO.N,/COL0*%
X67627500Y-61753750D03*
%TD*%
D15*
%TO.N,GND*%
X154480000Y-70040000D03*
X154510000Y-72740000D03*
X154500000Y-76490000D03*
%TO.N,/SDA*%
X146870000Y-74990000D03*
%TO.N,/ROW2*%
X125550000Y-107150000D03*
X106500000Y-107150000D03*
X87450000Y-107150000D03*
X68400000Y-107150000D03*
%TO.N,/ROW1*%
X125550000Y-88100000D03*
X106500000Y-88100000D03*
X87450000Y-88100000D03*
X68400000Y-88100000D03*
%TO.N,/ROW0*%
X125550000Y-69050000D03*
X106500000Y-69050000D03*
X87450000Y-69050000D03*
X68400000Y-69050000D03*
%TD*%
D16*
%TO.N,GND*%
X154510000Y-70070000D02*
X154480000Y-70040000D01*
X154510000Y-72740000D02*
X154510000Y-70070000D01*
X154493750Y-91415000D02*
X154493750Y-76496250D01*
X154493750Y-76496250D02*
X154500000Y-76490000D01*
%TO.N,/INT*%
X157003750Y-73818750D02*
X154041250Y-73818750D01*
X154041250Y-73818750D02*
X151953750Y-75906250D01*
X151953750Y-75906250D02*
X151953750Y-91415000D01*
%TO.N,/SDA*%
X146873750Y-74993750D02*
X146870000Y-74990000D01*
X146873750Y-91415000D02*
X146873750Y-74993750D01*
%TO.N,/SCL*%
X157003750Y-68738750D02*
X153521250Y-68738750D01*
X153521250Y-68738750D02*
X149413750Y-72846250D01*
X149413750Y-72846250D02*
X149413750Y-91415000D01*
%TO.N,+3.3V*%
X144333750Y-91415000D02*
X144333750Y-72106250D01*
X144333750Y-72106250D02*
X150241250Y-66198750D01*
X150241250Y-66198750D02*
X157003750Y-66198750D01*
%TO.N,/ROW2*%
X141763750Y-71278750D02*
X137671250Y-71278750D01*
X137671250Y-71278750D02*
X136750000Y-72200000D01*
X136750000Y-72200000D02*
X136750000Y-102850000D01*
X136750000Y-102850000D02*
X132450000Y-107150000D01*
X132450000Y-107150000D02*
X125550000Y-107150000D01*
%TO.N,/ROW1*%
X125550000Y-88100000D02*
X132850000Y-88100000D01*
X135500000Y-85450000D02*
X135500000Y-71100000D01*
X132850000Y-88100000D02*
X135500000Y-85450000D01*
X135500000Y-71100000D02*
X137861250Y-68738750D01*
X137861250Y-68738750D02*
X141763750Y-68738750D01*
%TO.N,/ROW0*%
X135201250Y-66198750D02*
X132400000Y-69000000D01*
X125600000Y-69000000D02*
X125550000Y-69050000D01*
X141763750Y-66198750D02*
X135201250Y-66198750D01*
X132400000Y-69000000D02*
X125600000Y-69000000D01*
%TO.N,/ROW2*%
X125550000Y-107150000D02*
X68400000Y-107150000D01*
%TO.N,/ROW1*%
X68400000Y-88100000D02*
X125550000Y-88100000D01*
%TO.N,/ROW0*%
X125550000Y-69050000D02*
X68400000Y-69050000D01*
%TD*%
M02*
