%TF.GenerationSoftware,KiCad,Pcbnew,7.0.6-7.0.6~ubuntu22.10.1*%
%TF.CreationDate,2023-08-12T22:12:45-04:00*%
%TF.ProjectId,ZachEKeyboard,5a616368-454b-4657-9962-6f6172642e6b,rev?*%
%TF.SameCoordinates,Original*%
%TF.FileFunction,Paste,Bot*%
%TF.FilePolarity,Positive*%
%FSLAX46Y46*%
G04 Gerber Fmt 4.6, Leading zero omitted, Abs format (unit mm)*
G04 Created by KiCad (PCBNEW 7.0.6-7.0.6~ubuntu22.10.1) date 2023-08-12 22:12:45*
%MOMM*%
%LPD*%
G01*
G04 APERTURE LIST*
G04 Aperture macros list*
%AMRoundRect*
0 Rectangle with rounded corners*
0 $1 Rounding radius*
0 $2 $3 $4 $5 $6 $7 $8 $9 X,Y pos of 4 corners*
0 Add a 4 corners polygon primitive as box body*
4,1,4,$2,$3,$4,$5,$6,$7,$8,$9,$2,$3,0*
0 Add four circle primitives for the rounded corners*
1,1,$1+$1,$2,$3*
1,1,$1+$1,$4,$5*
1,1,$1+$1,$6,$7*
1,1,$1+$1,$8,$9*
0 Add four rect primitives between the rounded corners*
20,1,$1+$1,$2,$3,$4,$5,0*
20,1,$1+$1,$4,$5,$6,$7,0*
20,1,$1+$1,$6,$7,$8,$9,0*
20,1,$1+$1,$8,$9,$2,$3,0*%
G04 Aperture macros list end*
%ADD10RoundRect,0.250000X1.025000X1.000000X-1.025000X1.000000X-1.025000X-1.000000X1.025000X-1.000000X0*%
%ADD11RoundRect,0.225000X-0.225000X-0.375000X0.225000X-0.375000X0.225000X0.375000X-0.225000X0.375000X0*%
G04 APERTURE END LIST*
D10*
%TO.C,MX12*%
X134677500Y-97313750D03*
X121227500Y-99853750D03*
%TD*%
%TO.C,MX11*%
X115627500Y-97313750D03*
X102177500Y-99853750D03*
%TD*%
%TO.C,MX10*%
X96577500Y-97313750D03*
X83127500Y-99853750D03*
%TD*%
%TO.C,MX9*%
X77527500Y-97313750D03*
X64077500Y-99853750D03*
%TD*%
%TO.C,MX8*%
X134677500Y-78263750D03*
X121227500Y-80803750D03*
%TD*%
%TO.C,MX7*%
X115627500Y-78263750D03*
X102177500Y-80803750D03*
%TD*%
%TO.C,MX6*%
X96577500Y-78263750D03*
X83127500Y-80803750D03*
%TD*%
%TO.C,MX5*%
X77527500Y-78263750D03*
X64077500Y-80803750D03*
%TD*%
%TO.C,MX4*%
X134677500Y-59213750D03*
X121227500Y-61753750D03*
%TD*%
%TO.C,MX3*%
X115627500Y-59213750D03*
X102177500Y-61753750D03*
%TD*%
%TO.C,MX2*%
X96577500Y-59213750D03*
X83127500Y-61753750D03*
%TD*%
%TO.C,MX1*%
X77527500Y-59213750D03*
X64077500Y-61753750D03*
%TD*%
D11*
%TO.C,D12*%
X126937500Y-107156250D03*
X130237500Y-107156250D03*
%TD*%
%TO.C,D11*%
X107887500Y-107156250D03*
X111187500Y-107156250D03*
%TD*%
%TO.C,D10*%
X88837500Y-107156250D03*
X92137500Y-107156250D03*
%TD*%
%TO.C,D9*%
X69787500Y-107156250D03*
X73087500Y-107156250D03*
%TD*%
%TO.C,D8*%
X126937500Y-88106250D03*
X130237500Y-88106250D03*
%TD*%
%TO.C,D7*%
X107887500Y-88106250D03*
X111187500Y-88106250D03*
%TD*%
%TO.C,D6*%
X88837500Y-88106250D03*
X92137500Y-88106250D03*
%TD*%
%TO.C,D5*%
X69787500Y-88106250D03*
X73087500Y-88106250D03*
%TD*%
%TO.C,D4*%
X126937500Y-69056250D03*
X130237500Y-69056250D03*
%TD*%
%TO.C,D3*%
X107887500Y-69056250D03*
X111187500Y-69056250D03*
%TD*%
%TO.C,D2*%
X88837500Y-69056250D03*
X92137500Y-69056250D03*
%TD*%
%TO.C,D1*%
X69787500Y-69056250D03*
X73087500Y-69056250D03*
%TD*%
M02*
