M48
; DRILL file {KiCad 7.0.6-7.0.6~ubuntu22.10.1} date Sat 12 Aug 2023 10:12:43 PM EDT
; FORMAT={-:-/ absolute / inch / decimal}
; #@! TF.CreationDate,2023-08-12T22:12:43-04:00
; #@! TF.GenerationSoftware,Kicad,Pcbnew,7.0.6-7.0.6~ubuntu22.10.1
; #@! TF.FileFunction,Plated,1,2,PTH
FMAT,2
INCH
; #@! TA.AperFunction,Plated,PTH,ViaDrill
T1C0.0157
; #@! TA.AperFunction,Plated,PTH,ComponentDrill
T2C0.0394
; #@! TA.AperFunction,Plated,PTH,ComponentDrill
T3C0.1181
%
G90
G05
T1
X2.6929Y-2.7185
X2.6929Y-3.4685
X2.6929Y-4.2185
X3.4429Y-2.7185
X3.4429Y-3.4685
X3.4429Y-4.2185
X4.1929Y-2.7185
X4.1929Y-3.4685
X4.1929Y-4.2185
X4.9429Y-2.7185
X4.9429Y-3.4685
X4.9429Y-4.2185
X5.7823Y-2.9524
X6.0819Y-2.7575
X6.0827Y-3.0114
X6.0831Y-2.8638
T2
X5.5812Y-2.3062
X5.5812Y-2.4062
X5.5812Y-2.5063
X5.5812Y-2.6062
X5.5812Y-2.7062
X5.5812Y-2.8062
X5.5812Y-2.9062
X5.5812Y-3.0063
X5.5812Y-3.1062
X5.5812Y-3.2062
X5.5812Y-3.3062
X5.5812Y-3.4062
X5.6824Y-3.599
X5.7824Y-3.599
X5.8824Y-3.599
X5.9824Y-3.599
X6.0824Y-3.599
X6.1812Y-2.3062
X6.1812Y-2.4062
X6.1812Y-2.5063
X6.1812Y-2.6062
X6.1812Y-2.7062
X6.1812Y-2.8062
X6.1812Y-2.9062
X6.1812Y-3.0063
X6.1812Y-3.1062
X6.1812Y-3.2062
X6.1812Y-3.3062
X6.1812Y-3.4062
T3
X2.6625Y-2.4312
X2.6625Y-3.1812
X2.6625Y-3.9312
X2.9125Y-2.3312
X2.9125Y-3.0812
X2.9125Y-3.8312
X3.4125Y-2.4312
X3.4125Y-3.1812
X3.4125Y-3.9312
X3.6625Y-2.3312
X3.6625Y-3.0812
X3.6625Y-3.8312
X4.1625Y-2.4312
X4.1625Y-3.1812
X4.1625Y-3.9312
X4.4125Y-2.3312
X4.4125Y-3.0812
X4.4125Y-3.8312
X4.9125Y-2.4312
X4.9125Y-3.1812
X4.9125Y-3.9312
X5.1625Y-2.3312
X5.1625Y-3.0812
X5.1625Y-3.8312
T0
M30
